<mxfile host="Electron" modified="2024-06-24T10:52:38.719Z" agent="Mozilla/5.0 (Windows NT 10.0; Win64; x64) AppleWebKit/537.36 (KHTML, like Gecko) draw.io/24.6.1 Chrome/124.0.6367.207 Electron/30.0.6 Safari/537.36" etag="_Mx7gEQyDrZCcz9yT4Jw" version="24.6.1" type="device">
  <diagram name="Page-1" id="2YBvvXClWsGukQMizWep">
    <mxGraphModel dx="1430" dy="582" grid="1" gridSize="10" guides="1" tooltips="1" connect="1" arrows="1" fold="1" page="1" pageScale="1" pageWidth="850" pageHeight="1100" math="0" shadow="0">
      <root>
        <mxCell id="0" />
        <mxCell id="1" parent="0" />
        <mxCell id="aM9ryv3xv72pqoxQDRHE-5" value="front-end" style="shape=umlLifeline;perimeter=lifelinePerimeter;whiteSpace=wrap;html=1;container=0;dropTarget=0;collapsible=0;recursiveResize=0;outlineConnect=0;portConstraint=eastwest;newEdgeStyle={&quot;edgeStyle&quot;:&quot;elbowEdgeStyle&quot;,&quot;elbow&quot;:&quot;vertical&quot;,&quot;curved&quot;:0,&quot;rounded&quot;:0};fillColor=#dae8fc;strokeColor=#6c8ebf;" parent="1" vertex="1">
          <mxGeometry x="325" y="80" width="100" height="370" as="geometry" />
        </mxCell>
        <mxCell id="aM9ryv3xv72pqoxQDRHE-6" value="" style="html=1;points=[];perimeter=orthogonalPerimeter;outlineConnect=0;targetShapes=umlLifeline;portConstraint=eastwest;newEdgeStyle={&quot;edgeStyle&quot;:&quot;elbowEdgeStyle&quot;,&quot;elbow&quot;:&quot;vertical&quot;,&quot;curved&quot;:0,&quot;rounded&quot;:0};fillColor=#f5f5f5;strokeColor=#666666;fontColor=#333333;" parent="aM9ryv3xv72pqoxQDRHE-5" vertex="1">
          <mxGeometry x="45" y="60" width="10" height="310" as="geometry" />
        </mxCell>
        <mxCell id="aM9ryv3xv72pqoxQDRHE-7" value="" style="html=1;verticalAlign=bottom;endArrow=block;edgeStyle=elbowEdgeStyle;elbow=vertical;curved=0;rounded=0;" parent="1" target="8Apsek6QmqHP2yx4Wg9q-33" edge="1">
          <mxGeometry relative="1" as="geometry">
            <mxPoint x="380" y="160" as="sourcePoint" />
            <Array as="points">
              <mxPoint x="465" y="160" />
            </Array>
            <mxPoint x="550" y="160" as="targetPoint" />
          </mxGeometry>
        </mxCell>
        <mxCell id="aM9ryv3xv72pqoxQDRHE-9" value="" style="html=1;verticalAlign=bottom;endArrow=block;edgeStyle=elbowEdgeStyle;elbow=vertical;curved=0;rounded=0;" parent="1" edge="1">
          <mxGeometry relative="1" as="geometry">
            <mxPoint x="545" y="199.9999999999999" as="sourcePoint" />
            <Array as="points">
              <mxPoint x="470" y="200" />
            </Array>
            <mxPoint x="380" y="200" as="targetPoint" />
          </mxGeometry>
        </mxCell>
        <mxCell id="8Apsek6QmqHP2yx4Wg9q-1" value="Admin" style="shape=umlActor;verticalLabelPosition=bottom;verticalAlign=top;html=1;outlineConnect=0;fillColor=#dae8fc;strokeColor=#6c8ebf;" vertex="1" parent="1">
          <mxGeometry x="180" y="50" width="30" height="60" as="geometry" />
        </mxCell>
        <mxCell id="8Apsek6QmqHP2yx4Wg9q-2" value="" style="rounded=0;whiteSpace=wrap;html=1;fillColor=#f5f5f5;strokeColor=#666666;fontColor=#333333;" vertex="1" parent="1">
          <mxGeometry x="185" y="150" width="20" height="340" as="geometry" />
        </mxCell>
        <mxCell id="8Apsek6QmqHP2yx4Wg9q-3" value="" style="endArrow=classic;html=1;rounded=0;entryX=0.5;entryY=0;entryDx=0;entryDy=0;" edge="1" parent="1" source="8Apsek6QmqHP2yx4Wg9q-1" target="8Apsek6QmqHP2yx4Wg9q-2">
          <mxGeometry width="50" height="50" relative="1" as="geometry">
            <mxPoint x="105" y="220" as="sourcePoint" />
            <mxPoint x="155" y="170" as="targetPoint" />
          </mxGeometry>
        </mxCell>
        <mxCell id="8Apsek6QmqHP2yx4Wg9q-4" value="Admin login" style="text;html=1;align=center;verticalAlign=middle;whiteSpace=wrap;rounded=0;" vertex="1" parent="1">
          <mxGeometry x="70" y="20" width="60" height="30" as="geometry" />
        </mxCell>
        <mxCell id="8Apsek6QmqHP2yx4Wg9q-6" value="BDD" style="shape=umlLifeline;perimeter=lifelinePerimeter;whiteSpace=wrap;html=1;container=0;dropTarget=0;collapsible=0;recursiveResize=0;outlineConnect=0;portConstraint=eastwest;newEdgeStyle={&quot;edgeStyle&quot;:&quot;elbowEdgeStyle&quot;,&quot;elbow&quot;:&quot;vertical&quot;,&quot;curved&quot;:0,&quot;rounded&quot;:0};fillColor=#dae8fc;strokeColor=#6c8ebf;" vertex="1" parent="1">
          <mxGeometry x="660" y="80" width="100" height="370" as="geometry" />
        </mxCell>
        <mxCell id="8Apsek6QmqHP2yx4Wg9q-7" value="" style="html=1;points=[];perimeter=orthogonalPerimeter;outlineConnect=0;targetShapes=umlLifeline;portConstraint=eastwest;newEdgeStyle={&quot;edgeStyle&quot;:&quot;elbowEdgeStyle&quot;,&quot;elbow&quot;:&quot;vertical&quot;,&quot;curved&quot;:0,&quot;rounded&quot;:0};fillColor=#e1d5e7;strokeColor=#9673a6;" vertex="1" parent="8Apsek6QmqHP2yx4Wg9q-6">
          <mxGeometry x="45" y="140" width="10" height="190" as="geometry" />
        </mxCell>
        <mxCell id="8Apsek6QmqHP2yx4Wg9q-8" value="&lt;font style=&quot;font-size: 10px;&quot;&gt;Login&lt;/font&gt;" style="rounded=1;whiteSpace=wrap;html=1;" vertex="1" parent="1">
          <mxGeometry x="415" y="140" width="100" height="20" as="geometry" />
        </mxCell>
        <mxCell id="8Apsek6QmqHP2yx4Wg9q-9" value="&lt;font style=&quot;font-size: 10px;&quot;&gt;Show login form&lt;/font&gt;" style="rounded=1;whiteSpace=wrap;html=1;" vertex="1" parent="1">
          <mxGeometry x="415" y="180" width="100" height="20" as="geometry" />
        </mxCell>
        <mxCell id="8Apsek6QmqHP2yx4Wg9q-10" value="" style="html=1;verticalAlign=bottom;endArrow=block;edgeStyle=elbowEdgeStyle;elbow=vertical;curved=0;rounded=0;" edge="1" parent="1" target="8Apsek6QmqHP2yx4Wg9q-33">
          <mxGeometry relative="1" as="geometry">
            <mxPoint x="380" y="238.32999999999998" as="sourcePoint" />
            <Array as="points">
              <mxPoint x="465" y="238.32999999999998" />
            </Array>
            <mxPoint x="550" y="238.32999999999998" as="targetPoint" />
          </mxGeometry>
        </mxCell>
        <mxCell id="8Apsek6QmqHP2yx4Wg9q-11" value="&lt;font style=&quot;font-size: 10px;&quot;&gt;Submits the form&lt;/font&gt;" style="rounded=1;whiteSpace=wrap;html=1;" vertex="1" parent="1">
          <mxGeometry x="420" y="218.32999999999998" width="100" height="20" as="geometry" />
        </mxCell>
        <mxCell id="8Apsek6QmqHP2yx4Wg9q-12" value="" style="html=1;verticalAlign=bottom;endArrow=block;edgeStyle=elbowEdgeStyle;elbow=vertical;curved=0;rounded=0;" edge="1" parent="1" source="8Apsek6QmqHP2yx4Wg9q-33">
          <mxGeometry relative="1" as="geometry">
            <mxPoint x="540" y="239.01999999999992" as="sourcePoint" />
            <Array as="points">
              <mxPoint x="620" y="239.02" />
            </Array>
            <mxPoint x="709.5000000000002" y="239.0199999999999" as="targetPoint" />
          </mxGeometry>
        </mxCell>
        <mxCell id="8Apsek6QmqHP2yx4Wg9q-13" value="&lt;font style=&quot;font-size: 10px;&quot;&gt;Check the credentials&lt;/font&gt;" style="rounded=1;whiteSpace=wrap;html=1;fillColor=#e1d5e7;strokeColor=#9673a6;" vertex="1" parent="1">
          <mxGeometry x="570" y="219.01999999999998" width="120" height="20" as="geometry" />
        </mxCell>
        <mxCell id="8Apsek6QmqHP2yx4Wg9q-17" value="" style="endArrow=none;html=1;rounded=0;fillColor=#f8cecc;strokeColor=#b85450;" edge="1" parent="1">
          <mxGeometry width="50" height="50" relative="1" as="geometry">
            <mxPoint x="80" y="280" as="sourcePoint" />
            <mxPoint x="790" y="280.29" as="targetPoint" />
          </mxGeometry>
        </mxCell>
        <mxCell id="8Apsek6QmqHP2yx4Wg9q-18" value="" style="endArrow=none;html=1;rounded=0;fillColor=#f8cecc;strokeColor=#b85450;" edge="1" parent="1">
          <mxGeometry width="50" height="50" relative="1" as="geometry">
            <mxPoint x="80" y="400" as="sourcePoint" />
            <mxPoint x="80" y="280" as="targetPoint" />
            <Array as="points">
              <mxPoint x="80" y="340" />
            </Array>
          </mxGeometry>
        </mxCell>
        <mxCell id="8Apsek6QmqHP2yx4Wg9q-19" value="logged" style="rounded=0;whiteSpace=wrap;html=1;fillColor=#d5e8d4;strokeColor=#82b366;" vertex="1" parent="1">
          <mxGeometry x="90" y="350" width="70" height="40" as="geometry" />
        </mxCell>
        <mxCell id="8Apsek6QmqHP2yx4Wg9q-20" value="&lt;font style=&quot;font-size: 10px;&quot;&gt;Data verified&lt;/font&gt;" style="rounded=1;whiteSpace=wrap;html=1;fillColor=#d5e8d4;strokeColor=#82b366;" vertex="1" parent="1">
          <mxGeometry x="410" y="350" width="120" height="20" as="geometry" />
        </mxCell>
        <mxCell id="8Apsek6QmqHP2yx4Wg9q-21" value="" style="endArrow=classic;html=1;rounded=0;" edge="1" parent="1">
          <mxGeometry width="50" height="50" relative="1" as="geometry">
            <mxPoint x="555" y="369.42999999999995" as="sourcePoint" />
            <mxPoint x="377.46857142857135" y="369.43" as="targetPoint" />
          </mxGeometry>
        </mxCell>
        <mxCell id="8Apsek6QmqHP2yx4Wg9q-22" value="" style="html=1;verticalAlign=bottom;endArrow=block;edgeStyle=elbowEdgeStyle;elbow=vertical;curved=0;rounded=0;" edge="1" parent="1">
          <mxGeometry relative="1" as="geometry">
            <mxPoint x="370" y="369.43" as="sourcePoint" />
            <Array as="points">
              <mxPoint x="295" y="369.43" />
            </Array>
            <mxPoint x="205" y="369.43" as="targetPoint" />
          </mxGeometry>
        </mxCell>
        <mxCell id="8Apsek6QmqHP2yx4Wg9q-23" value="&lt;font style=&quot;font-size: 10px;&quot;&gt;Confirmation message&lt;/font&gt;" style="rounded=1;whiteSpace=wrap;html=1;fillColor=#d5e8d4;strokeColor=#82b366;" vertex="1" parent="1">
          <mxGeometry x="235" y="349.31" width="120" height="20" as="geometry" />
        </mxCell>
        <mxCell id="8Apsek6QmqHP2yx4Wg9q-24" value="" style="html=1;verticalAlign=bottom;endArrow=block;edgeStyle=elbowEdgeStyle;elbow=vertical;curved=0;rounded=0;" edge="1" parent="1">
          <mxGeometry relative="1" as="geometry">
            <mxPoint x="555" y="419.9999999999999" as="sourcePoint" />
            <Array as="points">
              <mxPoint x="470" y="420" />
            </Array>
            <mxPoint x="380" y="420" as="targetPoint" />
          </mxGeometry>
        </mxCell>
        <mxCell id="8Apsek6QmqHP2yx4Wg9q-25" value="&lt;font style=&quot;font-size: 10px;&quot;&gt;Data not verified&lt;/font&gt;" style="rounded=1;whiteSpace=wrap;html=1;fillColor=#f8cecc;strokeColor=#b85450;" vertex="1" parent="1">
          <mxGeometry x="415" y="400" width="100" height="20" as="geometry" />
        </mxCell>
        <mxCell id="8Apsek6QmqHP2yx4Wg9q-26" value="No logged" style="rounded=0;whiteSpace=wrap;html=1;fillColor=#f8cecc;strokeColor=#b85450;" vertex="1" parent="1">
          <mxGeometry x="90" y="400" width="70" height="40" as="geometry" />
        </mxCell>
        <mxCell id="8Apsek6QmqHP2yx4Wg9q-27" value="" style="html=1;verticalAlign=bottom;endArrow=block;edgeStyle=elbowEdgeStyle;elbow=vertical;curved=0;rounded=0;" edge="1" parent="1">
          <mxGeometry relative="1" as="geometry">
            <mxPoint x="370" y="420" as="sourcePoint" />
            <Array as="points">
              <mxPoint x="295" y="420" />
            </Array>
            <mxPoint x="205" y="420" as="targetPoint" />
          </mxGeometry>
        </mxCell>
        <mxCell id="8Apsek6QmqHP2yx4Wg9q-28" value="&lt;font style=&quot;font-size: 10px;&quot;&gt;Error message&lt;/font&gt;" style="rounded=1;whiteSpace=wrap;html=1;fillColor=#f8cecc;strokeColor=#b85450;" vertex="1" parent="1">
          <mxGeometry x="240" y="390" width="100" height="30" as="geometry" />
        </mxCell>
        <mxCell id="8Apsek6QmqHP2yx4Wg9q-32" value="back-end" style="shape=umlLifeline;perimeter=lifelinePerimeter;whiteSpace=wrap;html=1;container=0;dropTarget=0;collapsible=0;recursiveResize=0;outlineConnect=0;portConstraint=eastwest;newEdgeStyle={&quot;edgeStyle&quot;:&quot;elbowEdgeStyle&quot;,&quot;elbow&quot;:&quot;vertical&quot;,&quot;curved&quot;:0,&quot;rounded&quot;:0};fillColor=#dae8fc;strokeColor=#6c8ebf;" vertex="1" parent="1">
          <mxGeometry x="500" y="80" width="100" height="370" as="geometry" />
        </mxCell>
        <mxCell id="8Apsek6QmqHP2yx4Wg9q-33" value="" style="html=1;points=[];perimeter=orthogonalPerimeter;outlineConnect=0;targetShapes=umlLifeline;portConstraint=eastwest;newEdgeStyle={&quot;edgeStyle&quot;:&quot;elbowEdgeStyle&quot;,&quot;elbow&quot;:&quot;vertical&quot;,&quot;curved&quot;:0,&quot;rounded&quot;:0};fillColor=#f5f5f5;strokeColor=#666666;fontColor=#333333;" vertex="1" parent="8Apsek6QmqHP2yx4Wg9q-32">
          <mxGeometry x="45" y="60" width="10" height="310" as="geometry" />
        </mxCell>
        <mxCell id="8Apsek6QmqHP2yx4Wg9q-35" value="" style="html=1;verticalAlign=bottom;endArrow=block;edgeStyle=elbowEdgeStyle;elbow=vertical;curved=0;rounded=0;" edge="1" parent="1">
          <mxGeometry relative="1" as="geometry">
            <mxPoint x="200" y="160" as="sourcePoint" />
            <Array as="points">
              <mxPoint x="285" y="160" />
            </Array>
            <mxPoint x="370" y="160" as="targetPoint" />
          </mxGeometry>
        </mxCell>
        <mxCell id="8Apsek6QmqHP2yx4Wg9q-36" value="&lt;font style=&quot;font-size: 10px;&quot;&gt;Open the login page&lt;/font&gt;" style="rounded=1;whiteSpace=wrap;html=1;" vertex="1" parent="1">
          <mxGeometry x="245" y="140" width="100" height="20" as="geometry" />
        </mxCell>
        <mxCell id="8Apsek6QmqHP2yx4Wg9q-37" value="" style="html=1;verticalAlign=bottom;endArrow=block;edgeStyle=elbowEdgeStyle;elbow=vertical;curved=0;rounded=0;" edge="1" parent="1">
          <mxGeometry relative="1" as="geometry">
            <mxPoint x="205" y="237.64" as="sourcePoint" />
            <Array as="points">
              <mxPoint x="290" y="237.64" />
            </Array>
            <mxPoint x="375" y="237.64" as="targetPoint" />
          </mxGeometry>
        </mxCell>
        <mxCell id="8Apsek6QmqHP2yx4Wg9q-38" value="&lt;font style=&quot;font-size: 10px;&quot;&gt;Fills out&lt;/font&gt;" style="rounded=1;whiteSpace=wrap;html=1;" vertex="1" parent="1">
          <mxGeometry x="250" y="217.64" width="100" height="20" as="geometry" />
        </mxCell>
        <mxCell id="8Apsek6QmqHP2yx4Wg9q-41" value="" style="html=1;verticalAlign=bottom;endArrow=block;edgeStyle=elbowEdgeStyle;elbow=vertical;curved=0;rounded=0;" edge="1" parent="1">
          <mxGeometry relative="1" as="geometry">
            <mxPoint x="712.5" y="389.3099999999999" as="sourcePoint" />
            <Array as="points">
              <mxPoint x="637.5" y="389.31" />
            </Array>
            <mxPoint x="547.5" y="389.31" as="targetPoint" />
          </mxGeometry>
        </mxCell>
        <mxCell id="8Apsek6QmqHP2yx4Wg9q-42" value="&lt;font style=&quot;font-size: 10px;&quot;&gt;Resend the credentials&lt;/font&gt;" style="rounded=1;whiteSpace=wrap;html=1;fillColor=#e1d5e7;strokeColor=#9673a6;" vertex="1" parent="1">
          <mxGeometry x="570" y="369.31" width="120" height="20" as="geometry" />
        </mxCell>
        <mxCell id="8Apsek6QmqHP2yx4Wg9q-43" value="Alt" style="rounded=0;whiteSpace=wrap;html=1;" vertex="1" parent="1">
          <mxGeometry x="80" y="280" width="70" height="40" as="geometry" />
        </mxCell>
      </root>
    </mxGraphModel>
  </diagram>
</mxfile>
